<?xml version="1.0" encoding="UTF-8"?>
<svg version="1.1" xmlns="http://www.w3.org/2000/svg" width="220" height="105">
<path d="M0 0 C0.33 11.22 0.66 22.44 1 34 C4.3 34 7.6 34 11 34 C16.42567677 35.40926669 21.18126499 36.68852499 25 41 C25.625 43.9375 25.625 43.9375 25 47 C21.41418118 51.85820614 16.75447921 54.49564093 11 56 C8.22074744 56.19526504 5.46006596 56.16017258 2.67578125 56.10546875 C1.93606079 56.09785522 1.19634033 56.0902417 0.4342041 56.08239746 C-1.37729787 56.06265158 -3.18868 56.03239022 -5 56 C-5.69787833 50.54193779 -6.39145401 45.08335097 -7.08129883 39.62426758 C-7.31583612 37.77288585 -7.55148445 35.92164448 -7.78833008 34.07055664 C-9.11133748 23.72424715 -10.36550324 13.41561953 -11 3 C-4.5 0 -4.5 0 0 0 Z M5 41 C5.33 43.97 5.66 46.94 6 50 C9.96 47.525 9.96 47.525 14 45 C11.06171403 42.49701566 8.82097239 41.53069061 5 41 Z " fill="#FFFFFF" transform="translate(58,24)"/>
<path d="M0 0 C-0.01160156 0.77859375 -0.02320312 1.5571875 -0.03515625 2.359375 C-0.12043651 12.93412717 0.40534547 23.44488217 1 34 C1.6595166 33.97897217 2.3190332 33.95794434 2.99853516 33.9362793 C7.83858319 33.84628756 11.8731949 33.81585222 16.375 35.8125 C17.16648438 36.14894531 17.95796875 36.48539063 18.7734375 36.83203125 C21.084154 38.04414394 23.03754655 39.27793617 25 41 C25.6875 43.8125 25.6875 43.8125 25 47 C21.03051807 51.833428 15.20416101 55.50803196 8.93101501 56.24211121 C6.80054673 56.29335018 4.69211156 56.26348797 2.5625 56.1875 C1.83095703 56.17396484 1.09941406 56.16042969 0.34570312 56.14648438 C-1.43652422 56.11153874 -3.21836573 56.05774805 -5 56 C-5.14099121 54.85635986 -5.28198242 53.71271973 -5.42724609 52.53442383 C-5.9583354 48.23079566 -6.49199252 43.92748893 -7.02636719 39.62426758 C-7.25589271 37.77311533 -7.48475138 35.92188025 -7.71289062 34.07055664 C-8.99288185 23.6874699 -10.31219008 13.32619776 -12 3 C-4.5 0 -4.5 0 0 0 Z M5 41 C5.33 43.97 5.66 46.94 6 50 C9.96 47.525 9.96 47.525 14 45 C11.06171403 42.49701566 8.82097239 41.53069061 5 41 Z " fill="#FFFFFF" transform="translate(122,24)"/>
<path d="M0 0 C0.41201519 4.13991932 0.82076298 8.28014604 1.22680664 12.4206543 C1.36463529 13.82177917 1.50327437 15.22282461 1.64282227 16.6237793 C2.61665277 26.40778756 3.40523982 36.18512747 4 46 C2.02 46 0.04 46 -2 46 C-3.93148265 36.49986091 -5.03060433 26.93532163 -6.125 17.3125 C-6.30826618 15.72457154 -6.49185759 14.13668057 -6.67578125 12.54882812 C-7.12093328 8.69964024 -7.56169825 4.84997367 -8 1 C-2.25 0 -2.25 0 0 0 Z " fill="#FFFFFF" transform="translate(97,29)"/>
<path d="M0 0 C1.90144327 15.29245867 2.97818313 30.62674878 4 46 C2.02 46 0.04 46 -2 46 C-7.36128284 11.11591963 -7.36128284 11.11591963 -7 1 C-2.25 0 -2.25 0 0 0 Z " fill="#FFFFFF" transform="translate(161,29)"/>
<path d="M0 0 C2.97 0 5.94 0 9 0 C9 8.25 9 16.5 9 25 C6.69 25 4.38 25 2 25 C1.34 16.75 0.68 8.5 0 0 Z " fill="#FFFFFF" transform="translate(101,53)"/>
<path d="M0 0 C2.64 0 5.28 0 8 0 C8.99 7.92 9.98 15.84 11 24 C8.69 24.33 6.38 24.66 4 25 C3.32315702 21.96050698 2.66038128 18.91810835 2 15.875 C1.80921875 15.0190625 1.6184375 14.163125 1.421875 13.28125 C0.45079667 8.77267206 -0.24359575 4.64354396 0 0 Z " fill="#FFFFFF" transform="translate(146,53)"/>
<path d="M0 0 C2.64 0 5.28 0 8 0 C8.99 7.92 9.98 15.84 11 24 C8.69 24.33 6.38 24.66 4 25 C3.32315702 21.96050698 2.66038128 18.91810835 2 15.875 C1.80921875 15.0190625 1.6184375 14.163125 1.421875 13.28125 C0.45079667 8.77267206 -0.24359575 4.64354396 0 0 Z " fill="#FFFFFF" transform="translate(82,53)"/>
<path d="M0 0 C2.31 0 4.62 0 7 0 C7 8.25 7 16.5 7 25 C5.02 25 3.04 25 1 25 C0.15672251 16.64251778 -0.12190678 8.39802254 0 0 Z " fill="#FFFFFF" transform="translate(166,53)"/>
<path d="M0 0 C3.5 0.125 3.5 0.125 4.5 1.125 C4.57179964 2.64428038 4.58392007 4.16667482 4.5625 5.6875 C4.55347656 6.51378906 4.54445312 7.34007812 4.53515625 8.19140625 C4.52355469 8.82949219 4.51195312 9.46757813 4.5 10.125 C2.19 10.455 -0.12 10.785 -2.5 11.125 C-4.09555725 7.63471852 -4.82049797 4.97097567 -4.5 1.125 C-3.5 0.125 -3.5 0.125 0 0 Z M-0.5 3.125 C0.5 5.125 0.5 5.125 0.5 5.125 Z " fill="#FFFFFF" transform="translate(148.5,40.875)"/>
<path d="M0 0 C1.134375 0.020625 2.26875 0.04125 3.4375 0.0625 C5.04475635 3.27701269 4.49498185 6.49862536 4.4375 10.0625 C2.1275 10.3925 -0.1825 10.7225 -2.5625 11.0625 C-4.15805725 7.57221852 -4.88299797 4.90847567 -4.5625 1.0625 C-3.5625 0.0625 -3.5625 0.0625 0 0 Z M-0.5625 4.0625 C0.4375 6.0625 0.4375 6.0625 0.4375 6.0625 Z " fill="#FFFFFF" transform="translate(84.5625,40.9375)"/>
<path d="M0 0 C2.64 0 5.28 0 8 0 C8 3.3 8 6.6 8 10 C5.36 10 2.72 10 0 10 C0 6.7 0 3.4 0 0 Z " fill="#FFFFFF" transform="translate(165,41)"/>
<path d="M0 0 C2.64 0 5.28 0 8 0 C8 3.3 8 6.6 8 10 C5.36 10 2.72 10 0 10 C0 6.7 0 3.4 0 0 Z " fill="#FFFFFF" transform="translate(101,41)"/>
</svg>
